#N canvas 267 142 1070 590 12;
#X obj 281 51 oscparse;
#X obj 282 73 list trim 4;
#X obj 282 96 route gesture;
#X obj 244 142 route left;
#X obj 344 141 route right;
#X obj 439 120 route mouth;
#X obj 439 141 route height;
#X obj 532 141 route width;
#X obj 439 163 * 20;
#X obj 536 206 hsl 128 15 0 127 0 0 empty empty empty -2 -8 0 10 -262144
-1 -1 12700 1;
#X obj 533 163 - 10;
#X obj 534 184 * 20;
#X obj 438 187 vsl 15 128 0 127 0 0 empty empty empty 0 -9 0 10 -262144
-1 -1 10351 1;
#X obj 244 121 route eyebrow;
#X obj 342 121 route eyebrow;
#X obj 47 143 route left;
#X obj 147 144 route right;
#X obj 47 122 route eye;
#X obj 145 122 route eye;
#X obj 243 214 vsl 15 128 0 127 0 0 empty empty empty 0 -9 0 10 -262144
-1 -1 3397 1;
#X obj 345 166 - 7;
#X obj 344 215 vsl 15 128 0 127 0 0 empty empty empty 0 -9 0 10 -262144
-1 -1 3182 1;
#X obj 244 165 - 7;
#X obj 345 188 * 20;
#X obj 244 187 * 20;
#X obj 281 29 udpreceive 8338;
#X floatatom 148 170 5 0 0 0 - - -;
#X floatatom 47 168 5 0 0 0 - - -;
#X obj 727 119 route jaw;
#X obj 728 143 - 26;
#X obj 728 165 * 20;
#X obj 732 188 hsl 128 15 0 127 0 0 empty empty empty -2 -8 0 10 -262144
-1 -1 0 1;
#X obj 623 121 route nostrils;
#X floatatom 624 143 5 0 0 0 - - -;
#X connect 0 0 1 0;
#X connect 1 0 2 0;
#X connect 2 0 5 0;
#X connect 2 0 13 0;
#X connect 2 0 14 0;
#X connect 2 0 17 0;
#X connect 2 0 18 0;
#X connect 2 0 28 0;
#X connect 2 0 32 0;
#X connect 3 0 22 0;
#X connect 4 0 20 0;
#X connect 5 0 6 0;
#X connect 5 0 7 0;
#X connect 6 0 8 0;
#X connect 7 0 10 0;
#X connect 8 0 12 0;
#X connect 10 0 11 0;
#X connect 11 0 9 0;
#X connect 13 0 3 0;
#X connect 14 0 4 0;
#X connect 15 0 27 0;
#X connect 16 0 26 0;
#X connect 17 0 15 0;
#X connect 18 0 16 0;
#X connect 20 0 23 0;
#X connect 22 0 24 0;
#X connect 23 0 21 0;
#X connect 24 0 19 0;
#X connect 25 0 0 0;
#X connect 28 0 29 0;
#X connect 29 0 30 0;
#X connect 30 0 31 0;
#X connect 32 0 33 0;
