#N canvas 0 25 707 331 12;
#N canvas 0 25 1322 778 bits 0;
#X obj 464 103 oscparse;
#X obj 464 126 list trim 4;
#X obj 464 81 udpreceive 8008;
#X obj 445 169 route annotations;
#X obj 225 191 route thumb;
#X obj 225 211 unpack 0 0 0 0 0 0 0 0 0 0 0 0;
#X floatatom 223 232 5 0 0 0 - - -;
#X floatatom 262 232 5 0 0 0 - - -;
#X floatatom 303 232 5 0 0 0 - - -;
#X floatatom 224 253 5 0 0 0 - - -;
#X floatatom 263 253 5 0 0 0 - - -;
#X floatatom 304 253 5 0 0 0 - - -;
#X floatatom 226 275 5 0 0 0 - - -;
#X floatatom 265 275 5 0 0 0 - - -;
#X floatatom 306 275 5 0 0 0 - - -;
#X floatatom 227 296 5 0 0 0 - - -;
#X floatatom 266 296 5 0 0 0 - - -;
#X floatatom 307 296 5 0 0 0 - - -;
#X obj 443 213 unpack 0 0 0 0 0 0 0 0 0 0 0 0;
#X floatatom 441 234 5 0 0 0 - - -;
#X floatatom 480 234 5 0 0 0 - - -;
#X floatatom 521 234 5 0 0 0 - - -;
#X floatatom 442 255 5 0 0 0 - - -;
#X floatatom 481 255 5 0 0 0 - - -;
#X floatatom 522 255 5 0 0 0 - - -;
#X floatatom 444 277 5 0 0 0 - - -;
#X floatatom 483 277 5 0 0 0 - - -;
#X floatatom 524 277 5 0 0 0 - - -;
#X floatatom 445 298 5 0 0 0 - - -;
#X floatatom 484 298 5 0 0 0 - - -;
#X floatatom 525 298 5 0 0 0 - - -;
#X obj 443 193 route indexFinger;
#X obj 664 210 unpack 0 0 0 0 0 0 0 0 0 0 0 0;
#X floatatom 662 231 5 0 0 0 - - -;
#X floatatom 701 231 5 0 0 0 - - -;
#X floatatom 742 231 5 0 0 0 - - -;
#X floatatom 663 252 5 0 0 0 - - -;
#X floatatom 702 252 5 0 0 0 - - -;
#X floatatom 743 252 5 0 0 0 - - -;
#X floatatom 665 274 5 0 0 0 - - -;
#X floatatom 704 274 5 0 0 0 - - -;
#X floatatom 745 274 5 0 0 0 - - -;
#X floatatom 666 295 5 0 0 0 - - -;
#X floatatom 705 295 5 0 0 0 - - -;
#X floatatom 746 295 5 0 0 0 - - -;
#X obj 664 190 route middleFinger;
#X obj 879 212 unpack 0 0 0 0 0 0 0 0 0 0 0 0;
#X floatatom 877 233 5 0 0 0 - - -;
#X floatatom 916 233 5 0 0 0 - - -;
#X floatatom 957 233 5 0 0 0 - - -;
#X floatatom 878 254 5 0 0 0 - - -;
#X floatatom 917 254 5 0 0 0 - - -;
#X floatatom 958 254 5 0 0 0 - - -;
#X floatatom 880 276 5 0 0 0 - - -;
#X floatatom 919 276 5 0 0 0 - - -;
#X floatatom 960 276 5 0 0 0 - - -;
#X floatatom 881 297 5 0 0 0 - - -;
#X floatatom 920 297 5 0 0 0 - - -;
#X floatatom 961 297 5 0 0 0 - - -;
#X obj 878 192 route ringFinger;
#X obj 1095 210 unpack 0 0 0 0 0 0 0 0 0 0 0 0;
#X floatatom 1093 231 5 0 0 0 - - -;
#X floatatom 1132 231 5 0 0 0 - - -;
#X floatatom 1173 231 5 0 0 0 - - -;
#X floatatom 1094 252 5 0 0 0 - - -;
#X floatatom 1133 252 5 0 0 0 - - -;
#X floatatom 1174 252 5 0 0 0 - - -;
#X floatatom 1096 274 5 0 0 0 - - -;
#X floatatom 1135 274 5 0 0 0 - - -;
#X floatatom 1176 274 5 0 0 0 - - -;
#X floatatom 1097 295 5 0 0 0 - - -;
#X floatatom 1136 295 5 0 0 0 - - -;
#X floatatom 1177 295 5 0 0 0 - - -;
#X obj 1094 190 route pinky;
#X floatatom 639 405 5 0 0 0 - - -;
#X floatatom 682 406 5 0 0 0 - - -;
#X obj 592 364 route palmBase;
#X floatatom 594 407 5 0 0 0 - - -;
#X obj 593 384 unpack 0 0 0;
#X obj 452 663 * 127;
#X obj 501 729 * 127;
#X obj 501 760 vsl 15 128 0 127 0 0 empty empty empty 0 -9 0 10 -262144
-1 -1 0 1;
#X obj 361 688 hsl 128 15 0 127 0 0 empty empty empty -2 -8 0 10 -262144
-1 -1 4626 1;
#X obj 498 684 * -1;
#X obj 500 706 + 1;
#X obj 492 639 / 480;
#X obj 657 661 * 127;
#X obj 706 727 * 127;
#X obj 706 752 vsl 15 128 0 127 0 0 empty empty empty 0 -9 0 10 -262144
-1 -1 0 1;
#X obj 566 686 hsl 128 15 0 127 0 0 empty empty empty -2 -8 0 10 -262144
-1 -1 4658 1;
#X obj 703 682 * -1;
#X obj 705 704 + 1;
#X obj 697 637 / 480;
#X obj 656 639 / 640;
#X obj 451 641 / 640;
#X obj 897 659 * 127;
#X obj 946 725 * 127;
#X obj 946 750 vsl 15 128 0 127 0 0 empty empty empty 0 -9 0 10 -262144
-1 -1 0 1;
#X obj 806 684 hsl 128 15 0 127 0 0 empty empty empty -2 -8 0 10 -262144
-1 -1 4719 1;
#X obj 943 680 * -1;
#X obj 945 702 + 1;
#X obj 937 635 / 480;
#X obj 1101 655 * 127;
#X obj 1141 717 * 127;
#X obj 1151 746 vsl 15 128 0 127 0 0 empty empty empty 0 -9 0 10 -262144
-1 -1 0 1;
#X obj 1011 682 hsl 128 15 0 127 0 0 empty empty empty -2 -8 0 10 -262144
-1 -1 4752 1;
#X obj 1148 678 * -1;
#X obj 1150 700 + 1;
#X obj 1142 633 / 480;
#X obj 1101 635 / 640;
#X obj 896 637 / 640;
#X obj 222 597 * 127;
#X obj 274 663 * 127;
#X obj 273 695 vsl 15 128 0 127 0 0 empty empty empty 0 -9 0 10 -262144
-1 -1 0 1;
#X obj 94 657 hsl 128 15 0 127 0 0 empty empty empty -2 -8 0 10 -262144
-1 -1 4333 1;
#X obj 271 618 * -1;
#X obj 273 640 + 1;
#X obj 265 573 / 480;
#X obj 224 575 / 640;
#X obj 526 791 vsl 15 128 0 127 0 0 empty empty empty 0 -9 0 10 -262144
-1 -1 2415 1;
#X obj 526 757 + 100;
#X obj 744 802 vsl 15 128 0 127 0 0 empty empty empty 0 -9 0 10 -262144
-1 -1 3469 1;
#X obj 731 773 + 100;
#X obj 968 796 vsl 15 128 0 127 0 0 empty empty empty 0 -9 0 10 -262144
-1 -1 4645 1;
#X obj 968 772 + 100;
#X obj 1190 794 vsl 15 128 0 127 0 0 empty empty empty 0 -9 0 10 -262144
-1 -1 5400 1;
#X obj 1175 765 + 100;
#X obj 298 718 vsl 15 128 0 127 0 0 empty empty empty 0 -9 0 10 -262144
-1 -1 2745 1;
#X obj 298 688 + 100;
#X obj 507 472 hsl 128 15 0 127 0 0 empty empty empty -2 -8 0 10 -262144
-1 -1 8245 1;
#X obj 683 436 vsl 15 128 0 127 0 0 empty empty empty 0 -9 0 10 -262144
-1 -1 0 1;
#X obj 634 426 / 480;
#X obj 593 428 / 640;
#X obj 596 449 * 127;
#X obj 639 493 * 127;
#X obj 636 448 * -1;
#X obj 638 470 + 1;
#X obj 516 444 line;
#X obj 518 420 \$1 \$1;
#X obj 527 388 loadbang;
#X msg 563 420 100;
#X obj 1069 772;
#X obj 149 889 outlet;
#X obj 199 889 outlet;
#X obj 249 889 outlet;
#X obj 158 566 * -1;
#X obj 160 588 + 1;
#X obj 412 636 * -1;
#X obj 414 658 + 1;
#X obj 394 925 outlet;
#X obj 444 925 outlet;
#X obj 494 925 outlet;
#X obj 609 636 * -1;
#X obj 611 658 + 1;
#X obj 858 634 * -1;
#X obj 860 656 + 1;
#X obj 1060 633 * -1;
#X obj 1062 655 + 1;
#X obj 612 934 outlet;
#X obj 662 934 outlet;
#X obj 712 934 outlet;
#X obj 812 931 outlet;
#X obj 862 931 outlet;
#X obj 912 931 outlet;
#X obj 1061 928 outlet;
#X obj 1111 928 outlet;
#X obj 1161 928 outlet;
#X obj 1233 860 outlet;
#X obj 1285 860 outlet;
#X obj 749 505 line;
#X obj 751 481 \$1 \$1;
#X obj 760 449 loadbang;
#X msg 796 481 100;
#X obj 74 622 line;
#X obj 76 598 \$1 \$1;
#X obj 85 566 loadbang;
#X msg 121 598 100;
#X obj 175 754 line;
#X obj 177 730 \$1 \$1;
#X obj 186 698 loadbang;
#X msg 222 730 100;
#X obj 318 768 line;
#X obj 320 744 \$1 \$1;
#X obj 329 712 loadbang;
#X msg 365 744 100;
#X obj 373 615 line;
#X obj 375 591 \$1 \$1;
#X obj 384 559 loadbang;
#X msg 420 591 100;
#X obj 429 801 line;
#X obj 431 777 \$1 \$1;
#X obj 440 745 loadbang;
#X msg 476 777 100;
#X obj 551 850 line;
#X obj 553 826 \$1 \$1;
#X obj 562 794 loadbang;
#X msg 598 826 100;
#X obj 1229 572 line;
#X obj 1231 548 \$1 \$1;
#X obj 1240 516 loadbang;
#X msg 1276 548 100;
#X obj 1223 655 line;
#X obj 1225 631 \$1 \$1;
#X obj 1234 599 loadbang;
#X msg 1270 631 100;
#X obj 1223 739 line;
#X obj 1225 715 \$1 \$1;
#X obj 1234 683 loadbang;
#X msg 1270 715 100;
#X obj 981 471 line;
#X obj 983 447 \$1 \$1;
#X obj 992 415 loadbang;
#X msg 1028 447 100;
#X obj 975 554 line;
#X obj 977 530 \$1 \$1;
#X obj 986 498 loadbang;
#X msg 1022 530 100;
#X obj 975 638 line;
#X obj 977 614 \$1 \$1;
#X obj 986 582 loadbang;
#X msg 1022 614 100;
#X obj 768 582 line;
#X obj 770 558 \$1 \$1;
#X obj 779 526 loadbang;
#X msg 815 558 100;
#X obj 762 665 line;
#X obj 764 641 \$1 \$1;
#X obj 773 609 loadbang;
#X msg 809 641 100;
#X obj 762 749 line;
#X obj 764 725 \$1 \$1;
#X obj 773 693 loadbang;
#X msg 809 725 100;
#X connect 0 0 1 0;
#X connect 1 0 3 0;
#X connect 2 0 0 0;
#X connect 3 0 4 0;
#X connect 3 0 31 0;
#X connect 3 0 45 0;
#X connect 3 0 59 0;
#X connect 3 0 73 0;
#X connect 3 0 76 0;
#X connect 4 0 5 0;
#X connect 5 0 6 0;
#X connect 5 1 7 0;
#X connect 5 2 8 0;
#X connect 5 3 9 0;
#X connect 5 4 10 0;
#X connect 5 5 11 0;
#X connect 5 6 12 0;
#X connect 5 7 13 0;
#X connect 5 8 14 0;
#X connect 5 9 15 0;
#X connect 5 10 16 0;
#X connect 5 11 17 0;
#X connect 15 0 118 0;
#X connect 16 0 117 0;
#X connect 17 0 128 0;
#X connect 18 0 19 0;
#X connect 18 1 20 0;
#X connect 18 2 21 0;
#X connect 18 3 22 0;
#X connect 18 4 23 0;
#X connect 18 5 24 0;
#X connect 18 6 25 0;
#X connect 18 7 26 0;
#X connect 18 8 27 0;
#X connect 18 9 28 0;
#X connect 18 10 29 0;
#X connect 18 11 30 0;
#X connect 28 0 94 0;
#X connect 29 0 85 0;
#X connect 30 0 120 0;
#X connect 31 0 18 0;
#X connect 32 0 33 0;
#X connect 32 1 34 0;
#X connect 32 2 35 0;
#X connect 32 3 36 0;
#X connect 32 4 37 0;
#X connect 32 5 38 0;
#X connect 32 6 39 0;
#X connect 32 7 40 0;
#X connect 32 8 41 0;
#X connect 32 9 42 0;
#X connect 32 10 43 0;
#X connect 32 11 44 0;
#X connect 42 0 93 0;
#X connect 43 0 92 0;
#X connect 44 0 122 0;
#X connect 45 0 32 0;
#X connect 46 0 47 0;
#X connect 46 1 48 0;
#X connect 46 2 49 0;
#X connect 46 3 50 0;
#X connect 46 4 51 0;
#X connect 46 5 52 0;
#X connect 46 6 53 0;
#X connect 46 7 54 0;
#X connect 46 8 55 0;
#X connect 46 9 56 0;
#X connect 46 10 57 0;
#X connect 46 11 58 0;
#X connect 56 0 110 0;
#X connect 57 0 101 0;
#X connect 58 0 124 0;
#X connect 59 0 46 0;
#X connect 60 0 61 0;
#X connect 60 1 62 0;
#X connect 60 2 63 0;
#X connect 60 3 64 0;
#X connect 60 4 65 0;
#X connect 60 5 66 0;
#X connect 60 6 67 0;
#X connect 60 7 68 0;
#X connect 60 8 69 0;
#X connect 60 9 70 0;
#X connect 60 10 71 0;
#X connect 60 11 72 0;
#X connect 70 0 109 0;
#X connect 71 0 108 0;
#X connect 72 0 126 0;
#X connect 73 0 60 0;
#X connect 76 0 78 0;
#X connect 78 0 77 0;
#X connect 78 0 132 0;
#X connect 78 1 74 0;
#X connect 78 1 131 0;
#X connect 78 2 75 0;
#X connect 79 0 186 0;
#X connect 80 0 190 0;
#X connect 83 0 84 0;
#X connect 84 0 80 0;
#X connect 85 0 83 0;
#X connect 86 0 222 0;
#X connect 87 0 226 0;
#X connect 90 0 91 0;
#X connect 91 0 87 0;
#X connect 92 0 90 0;
#X connect 93 0 152 0;
#X connect 94 0 147 0;
#X connect 95 0 210 0;
#X connect 96 0 214 0;
#X connect 99 0 100 0;
#X connect 100 0 96 0;
#X connect 101 0 99 0;
#X connect 102 0 198 0;
#X connect 103 0 202 0;
#X connect 106 0 107 0;
#X connect 107 0 103 0;
#X connect 108 0 106 0;
#X connect 109 0 156 0;
#X connect 110 0 154 0;
#X connect 111 0 174 0;
#X connect 112 0 178 0;
#X connect 115 0 116 0;
#X connect 116 0 112 0;
#X connect 117 0 115 0;
#X connect 118 0 145 0;
#X connect 120 0 194 0;
#X connect 122 0 230 0;
#X connect 124 0 218 0;
#X connect 126 0 206 0;
#X connect 128 0 182 0;
#X connect 131 0 135 0;
#X connect 132 0 133 0;
#X connect 133 0 138 0;
#X connect 134 0 170 0;
#X connect 135 0 136 0;
#X connect 136 0 134 0;
#X connect 137 0 129 0;
#X connect 137 0 167 0;
#X connect 138 0 137 0;
#X connect 139 0 140 0;
#X connect 140 0 138 1;
#X connect 145 0 146 0;
#X connect 146 0 111 0;
#X connect 147 0 148 0;
#X connect 148 0 79 0;
#X connect 152 0 153 0;
#X connect 153 0 86 0;
#X connect 154 0 155 0;
#X connect 155 0 95 0;
#X connect 156 0 157 0;
#X connect 157 0 102 0;
#X connect 169 0 130 0;
#X connect 169 0 168 0;
#X connect 170 0 169 0;
#X connect 171 0 172 0;
#X connect 172 0 170 1;
#X connect 173 0 114 0;
#X connect 173 0 142 0;
#X connect 174 0 173 0;
#X connect 175 0 176 0;
#X connect 176 0 174 1;
#X connect 177 0 113 0;
#X connect 177 0 143 0;
#X connect 178 0 177 0;
#X connect 179 0 180 0;
#X connect 180 0 178 1;
#X connect 181 0 127 0;
#X connect 181 0 144 0;
#X connect 182 0 181 0;
#X connect 183 0 184 0;
#X connect 184 0 182 1;
#X connect 185 0 82 0;
#X connect 185 0 149 0;
#X connect 186 0 185 0;
#X connect 187 0 188 0;
#X connect 188 0 186 1;
#X connect 189 0 81 0;
#X connect 189 0 150 0;
#X connect 190 0 189 0;
#X connect 191 0 192 0;
#X connect 192 0 190 1;
#X connect 193 0 119 0;
#X connect 193 0 151 0;
#X connect 194 0 193 0;
#X connect 195 0 196 0;
#X connect 196 0 194 1;
#X connect 197 0 105 0;
#X connect 197 0 164 0;
#X connect 198 0 197 0;
#X connect 199 0 200 0;
#X connect 200 0 198 1;
#X connect 201 0 104 0;
#X connect 201 0 165 0;
#X connect 202 0 201 0;
#X connect 203 0 204 0;
#X connect 204 0 202 1;
#X connect 205 0 125 0;
#X connect 205 0 166 0;
#X connect 206 0 205 0;
#X connect 207 0 208 0;
#X connect 208 0 206 1;
#X connect 209 0 98 0;
#X connect 209 0 161 0;
#X connect 210 0 209 0;
#X connect 211 0 212 0;
#X connect 212 0 210 1;
#X connect 213 0 97 0;
#X connect 213 0 162 0;
#X connect 214 0 213 0;
#X connect 215 0 216 0;
#X connect 216 0 214 1;
#X connect 217 0 123 0;
#X connect 217 0 163 0;
#X connect 218 0 217 0;
#X connect 219 0 220 0;
#X connect 220 0 218 1;
#X connect 221 0 89 0;
#X connect 221 0 158 0;
#X connect 222 0 221 0;
#X connect 223 0 224 0;
#X connect 224 0 222 1;
#X connect 225 0 88 0;
#X connect 225 0 159 0;
#X connect 226 0 225 0;
#X connect 227 0 228 0;
#X connect 228 0 226 1;
#X connect 229 0 121 0;
#X connect 229 0 160 0;
#X connect 230 0 229 0;
#X connect 231 0 232 0;
#X connect 232 0 230 1;
#X restore 97 40 pd bits;
#X f 60;
#X obj 14 73 vsl 15 128 0 127 0 0 empty empty empty 0 -9 0 10 -262144
-1 -1 4333 1;
#X obj 37 73 vsl 15 128 0 127 0 0 empty empty empty 0 -9 0 10 -262144
-1 -1 0 1;
#X obj 59 73 vsl 15 128 0 127 0 0 empty empty empty 0 -9 0 10 -262144
-1 -1 2745 1;
#X obj 152 76 vsl 15 128 0 127 0 0 empty empty empty 0 -9 0 10 -262144
-1 -1 4626 1;
#X obj 175 76 vsl 15 128 0 127 0 0 empty empty empty 0 -9 0 10 -262144
-1 -1 0 1;
#X obj 197 76 vsl 15 128 0 127 0 0 empty empty empty 0 -9 0 10 -262144
-1 -1 2415 1;
#X obj 282 78 vsl 15 128 0 127 0 0 empty empty empty 0 -9 0 10 -262144
-1 -1 4658 1;
#X obj 305 78 vsl 15 128 0 127 0 0 empty empty empty 0 -9 0 10 -262144
-1 -1 0 1;
#X obj 327 78 vsl 15 128 0 127 0 0 empty empty empty 0 -9 0 10 -262144
-1 -1 3469 1;
#X obj 420 81 vsl 15 128 0 127 0 0 empty empty empty 0 -9 0 10 -262144
-1 -1 4719 1;
#X obj 443 81 vsl 15 128 0 127 0 0 empty empty empty 0 -9 0 10 -262144
-1 -1 0 1;
#X obj 465 81 vsl 15 128 0 127 0 0 empty empty empty 0 -9 0 10 -262144
-1 -1 4645 1;
#X obj 537 84 vsl 15 128 0 127 0 0 empty empty empty 0 -9 0 10 -262144
-1 -1 4752 1;
#X obj 560 84 vsl 15 128 0 127 0 0 empty empty empty 0 -9 0 10 -262144
-1 -1 0 1;
#X obj 582 84 vsl 15 128 0 127 0 0 empty empty empty 0 -9 0 10 -262144
-1 -1 5400 1;
#X text 18 210 thumb;
#X text 542 220 litlle;
#X text 419 219 ring;
#X text 280 217 the birdie;
#X text 149 215 index;
#X text 626 80 palm position;
#X floatatom 622 60 5 0 0 0 - - -;
#X floatatom 665 60 5 0 0 0 - - -;
#X connect 0 0 1 0;
#X connect 0 1 2 0;
#X connect 0 2 3 0;
#X connect 0 3 4 0;
#X connect 0 4 5 0;
#X connect 0 5 6 0;
#X connect 0 6 7 0;
#X connect 0 7 8 0;
#X connect 0 8 9 0;
#X connect 0 9 10 0;
#X connect 0 10 11 0;
#X connect 0 11 12 0;
#X connect 0 12 13 0;
#X connect 0 13 14 0;
#X connect 0 14 15 0;
#X connect 0 15 22 0;
#X connect 0 16 23 0;
