#N canvas -227 25 1234 779 12;
#X obj 452 31 oscparse;
#X obj 452 9 udpreceive 9527;
#X obj 452 54 list trim 4;
#X obj 452 77 route poses;
#X obj 453 98 route arr;
#X floatatom 530 98 5 0 0 0 - - -;
#X floatatom 609 98 5 0 0 0 - - -;
#X floatatom 569 98 5 0 0 0 - - -;
#X floatatom 296 159 5 0 0 0 - - -;
#X floatatom 377 158 5 0 0 0 - - -;
#X floatatom 337 158 5 0 0 0 - - -;
#X floatatom 296 180 5 0 0 0 - - -;
#X floatatom 375 180 5 0 0 0 - - -;
#X floatatom 335 180 5 0 0 0 - - -;
#X floatatom 296 202 5 0 0 0 - - -;
#X floatatom 377 201 5 0 0 0 - - -;
#X floatatom 337 201 5 0 0 0 - - -;
#X floatatom 296 223 5 0 0 0 - - -;
#X floatatom 375 223 5 0 0 0 - - -;
#X floatatom 335 223 5 0 0 0 - - -;
#X floatatom 297 244 5 0 0 0 - - -;
#X floatatom 376 244 5 0 0 0 - - -;
#X floatatom 336 244 5 0 0 0 - - -;
#X floatatom 297 317 5 0 0 0 - - -;
#X floatatom 378 316 5 0 0 0 - - -;
#X floatatom 338 316 5 0 0 0 - - -;
#X floatatom 297 338 5 0 0 0 - - -;
#X floatatom 376 338 5 0 0 0 - - -;
#X floatatom 336 338 5 0 0 0 - - -;
#X text 232 179 left eye;
#X text 225 201 right eye;
#X text 232 223 left ear;
#X text 226 247 right ear;
#X text 295 128 conf;
#X text 345 127 x;
#X text 385 126 y;
#X text 260 159 nose;
#X text 198 319 left shoulder;
#X text 192 339 right shoulder;
#X floatatom 298 360 5 0 0 0 - - -;
#X floatatom 379 359 5 0 0 0 - - -;
#X floatatom 339 359 5 0 0 0 - - -;
#X floatatom 298 381 5 0 0 0 - - -;
#X floatatom 377 381 5 0 0 0 - - -;
#X floatatom 337 381 5 0 0 0 - - -;
#X text 219 361 left elbow;
#X text 212 380 right elbow;
#X floatatom 299 404 5 0 0 0 - - -;
#X floatatom 380 403 5 0 0 0 - - -;
#X floatatom 340 403 5 0 0 0 - - -;
#X floatatom 299 425 5 0 0 0 - - -;
#X floatatom 378 425 5 0 0 0 - - -;
#X floatatom 338 425 5 0 0 0 - - -;
#X text 220 405 left wrist;
#X text 213 424 right wrist;
#X floatatom 299 515 5 0 0 0 - - -;
#X floatatom 380 514 5 0 0 0 - - -;
#X floatatom 340 514 5 0 0 0 - - -;
#X floatatom 299 536 5 0 0 0 - - -;
#X floatatom 378 536 5 0 0 0 - - -;
#X floatatom 338 536 5 0 0 0 - - -;
#X text 233 515 left hip;
#X text 226 534 right hip;
#X floatatom 299 559 5 0 0 0 - - -;
#X floatatom 380 558 5 0 0 0 - - -;
#X floatatom 340 558 5 0 0 0 - - -;
#X floatatom 299 580 5 0 0 0 - - -;
#X floatatom 378 580 5 0 0 0 - - -;
#X floatatom 338 580 5 0 0 0 - - -;
#X text 223 559 left knee;
#X text 216 578 right knee;
#X floatatom 298 602 5 0 0 0 - - -;
#X floatatom 379 601 5 0 0 0 - - -;
#X floatatom 339 601 5 0 0 0 - - -;
#X floatatom 298 623 5 0 0 0 - - -;
#X floatatom 377 623 5 0 0 0 - - -;
#X floatatom 337 623 5 0 0 0 - - -;
#X text 222 602 left ankle;
#X text 215 621 right ankle;
#X obj 451 118 unpack 0 0 0 0 0 0 0 0 0 0 0 0 0 0 0 0 0 0 0 0 0 0 0
0 0 0 0 0 0 0 0 0 0 0 0 0 0 0 0 0 0 0 0 0 0 0 0 0 0 0 0 0 0 0, f 27
;
#X obj 660 398 / 640;
#X obj 836 398 / 480;
#X obj 703 399 hsl 128 15 0 1 0 0 empty empty empty -2 -8 0 10 -262144
-1 -1 6944 1;
#X obj 880 399 hsl 128 15 0 1 0 0 empty empty empty -2 -8 0 10 -262144
-1 -1 10995 1;
#X obj 705 179 hsl 128 15 0 1 0 0 empty empty empty -2 -8 0 10 -262144
-1 -1 5567 1;
#X obj 882 179 hsl 128 15 0 1 0 0 empty empty empty -2 -8 0 10 -262144
-1 -1 751 1;
#X obj 661 200 / 640;
#X obj 837 200 / 480;
#X obj 704 201 hsl 128 15 0 1 0 0 empty empty empty -2 -8 0 10 -262144
-1 -1 4314 1;
#X obj 881 201 hsl 128 15 0 1 0 0 empty empty empty -2 -8 0 10 -262144
-1 -1 904 1;
#X obj 661 219 / 640;
#X obj 837 219 / 480;
#X obj 704 220 hsl 128 15 0 1 0 0 empty empty empty -2 -8 0 10 -262144
-1 -1 6485 1;
#X obj 881 220 hsl 128 15 0 1 0 0 empty empty empty -2 -8 0 10 -262144
-1 -1 869 1;
#X obj 660 241 / 640;
#X obj 836 241 / 480;
#X obj 703 242 hsl 128 15 0 1 0 0 empty empty empty -2 -8 0 10 -262144
-1 -1 3609 1;
#X obj 880 242 hsl 128 15 0 1 0 0 empty empty empty -2 -8 0 10 -262144
-1 -1 980 1;
#X obj 660 313 / 640;
#X obj 836 313 / 480;
#X obj 703 314 hsl 128 15 0 1 0 0 empty empty empty -2 -8 0 10 -262144
-1 -1 8010 1;
#X obj 880 314 hsl 128 15 0 1 0 0 empty empty empty -2 -8 0 10 -262144
-1 -1 5450 1;
#X obj 659 335 / 640;
#X obj 835 335 / 480;
#X obj 702 336 hsl 128 15 0 1 0 0 empty empty empty -2 -8 0 10 -262144
-1 -1 3160 1;
#X obj 879 336 hsl 128 15 0 1 0 0 empty empty empty -2 -8 0 10 -262144
-1 -1 4867 1;
#X obj 659 354 / 640;
#X obj 835 354 / 480;
#X obj 702 355 hsl 128 15 0 1 0 0 empty empty empty -2 -8 0 10 -262144
-1 -1 9916 1;
#X obj 879 355 hsl 128 15 0 1 0 0 empty empty empty -2 -8 0 10 -262144
-1 -1 12700 1;
#X obj 658 376 / 640;
#X obj 834 376 / 480;
#X obj 701 377 hsl 128 15 0 1 0 0 empty empty empty -2 -8 0 10 -262144
-1 -1 3542 1;
#X obj 878 377 hsl 128 15 0 1 0 0 empty empty empty -2 -8 0 10 -262144
-1 -1 9195 1;
#X obj 661 528 / 640;
#X obj 837 528 / 480;
#X obj 704 529 hsl 128 15 0 1 0 0 empty empty empty -2 -8 0 10 -262144
-1 -1 3980 1;
#X obj 881 529 hsl 128 15 0 1 0 0 empty empty empty -2 -8 0 10 -262144
-1 -1 12204 1;
#X obj 659 419 / 640;
#X obj 835 419 / 480;
#X obj 702 420 hsl 128 15 0 1 0 0 empty empty empty -2 -8 0 10 -262144
-1 -1 3176 1;
#X obj 879 420 hsl 128 15 0 1 0 0 empty empty empty -2 -8 0 10 -262144
-1 -1 11006 1;
#X obj 659 506 / 640;
#X obj 835 506 / 480;
#X obj 702 507 hsl 128 15 0 1 0 0 empty empty empty -2 -8 0 10 -262144
-1 -1 4901 1;
#X obj 879 507 hsl 128 15 0 1 0 0 empty empty empty -2 -8 0 10 -262144
-1 -1 12187 1;
#X obj 659 592 / 640;
#X obj 835 592 / 480;
#X obj 702 593 hsl 128 15 0 1 0 0 empty empty empty -2 -8 0 10 -262144
-1 -1 10435 1;
#X obj 879 593 hsl 128 15 0 1 0 0 empty empty empty -2 -8 0 10 -262144
-1 -1 12700 1;
#X obj 658 548 / 640;
#X obj 834 548 / 480;
#X obj 701 549 hsl 128 15 0 1 0 0 empty empty empty -2 -8 0 10 -262144
-1 -1 10079 1;
#X obj 878 549 hsl 128 15 0 1 0 0 empty empty empty -2 -8 0 10 -262144
-1 -1 12280 1;
#X obj 657 570 / 640;
#X obj 833 570 / 480;
#X obj 700 571 hsl 128 15 0 1 0 0 empty empty empty -2 -8 0 10 -262144
-1 -1 2964 1;
#X obj 877 571 hsl 128 15 0 1 0 0 empty empty empty -2 -8 0 10 -262144
-1 -1 12700 1;
#X obj 660 611 / 640;
#X obj 836 611 / 480;
#X obj 703 612 hsl 128 15 0 1 0 0 empty empty empty -2 -8 0 10 -262144
-1 -1 5268 1;
#X obj 880 612 hsl 128 15 0 1 0 0 empty empty empty -2 -8 0 10 -262144
-1 -1 12700 1;
#X text 1011 178 left eye;
#X text 1012 197 right eye;
#X text 1013 219 left ear;
#X text 1013 238 right ear;
#X text 1012 155 nose;
#X text 1013 314 left shoulder;
#X text 1012 331 right shoulder;
#X text 1014 353 left elbow;
#X text 1016 376 right elbow;
#X text 1013 397 left wrist;
#X text 1012 417 right wrist;
#X text 1015 506 left hip;
#X text 1013 525 right hip;
#X text 1016 547 left knee;
#X text 1010 569 right knee;
#X text 1015 590 left ankle;
#X text 1008 609 right ankle;
#X obj 662 178 / 640;
#X obj 838 178 / 480;
#X obj 703 157 hsl 128 15 0 1 0 0 empty empty empty -2 -8 0 10 -262144
-1 -1 5078 1;
#X obj 880 157 hsl 128 15 0 1 0 0 empty empty empty -2 -8 0 10 -262144
-1 -1 1830 1;
#X obj 660 156 / 640;
#X obj 836 156 / 480;
#X obj 1111 172 > 0.4;
#X obj 1111 215 tgl 15 0 empty empty empty 17 7 0 10 -262144 -1 -1
0 1;
#X obj 1111 194 change;
#X obj 1128 212 s on;
#X connect 0 0 2 0;
#X connect 1 0 0 0;
#X connect 2 0 3 0;
#X connect 3 0 4 0;
#X connect 4 0 79 0;
#X connect 9 0 164 0;
#X connect 10 0 163 0;
#X connect 12 0 160 0;
#X connect 13 0 159 0;
#X connect 15 0 87 0;
#X connect 16 0 86 0;
#X connect 18 0 91 0;
#X connect 19 0 90 0;
#X connect 21 0 95 0;
#X connect 22 0 94 0;
#X connect 24 0 99 0;
#X connect 25 0 98 0;
#X connect 27 0 103 0;
#X connect 28 0 102 0;
#X connect 40 0 107 0;
#X connect 41 0 106 0;
#X connect 43 0 111 0;
#X connect 44 0 110 0;
#X connect 48 0 81 0;
#X connect 49 0 80 0;
#X connect 51 0 119 0;
#X connect 52 0 118 0;
#X connect 56 0 123 0;
#X connect 57 0 122 0;
#X connect 59 0 115 0;
#X connect 60 0 114 0;
#X connect 64 0 131 0;
#X connect 65 0 130 0;
#X connect 67 0 135 0;
#X connect 68 0 134 0;
#X connect 72 0 127 0;
#X connect 73 0 126 0;
#X connect 75 0 139 0;
#X connect 76 0 138 0;
#X connect 79 0 5 0;
#X connect 79 1 7 0;
#X connect 79 2 6 0;
#X connect 79 3 8 0;
#X connect 79 4 10 0;
#X connect 79 5 9 0;
#X connect 79 6 11 0;
#X connect 79 7 13 0;
#X connect 79 8 12 0;
#X connect 79 9 14 0;
#X connect 79 10 16 0;
#X connect 79 11 15 0;
#X connect 79 12 17 0;
#X connect 79 13 19 0;
#X connect 79 14 18 0;
#X connect 79 15 20 0;
#X connect 79 16 22 0;
#X connect 79 17 21 0;
#X connect 79 18 23 0;
#X connect 79 19 25 0;
#X connect 79 20 24 0;
#X connect 79 21 26 0;
#X connect 79 22 28 0;
#X connect 79 23 27 0;
#X connect 79 24 39 0;
#X connect 79 25 41 0;
#X connect 79 26 40 0;
#X connect 79 27 42 0;
#X connect 79 28 44 0;
#X connect 79 29 43 0;
#X connect 79 30 47 0;
#X connect 79 31 49 0;
#X connect 79 32 48 0;
#X connect 79 33 50 0;
#X connect 79 34 52 0;
#X connect 79 35 51 0;
#X connect 79 36 55 0;
#X connect 79 37 57 0;
#X connect 79 38 56 0;
#X connect 79 39 58 0;
#X connect 79 40 60 0;
#X connect 79 41 59 0;
#X connect 79 42 63 0;
#X connect 79 43 65 0;
#X connect 79 44 64 0;
#X connect 79 45 66 0;
#X connect 79 46 68 0;
#X connect 79 47 67 0;
#X connect 79 48 71 0;
#X connect 79 49 73 0;
#X connect 79 50 72 0;
#X connect 79 51 74 0;
#X connect 79 52 76 0;
#X connect 79 53 75 0;
#X connect 80 0 82 0;
#X connect 81 0 83 0;
#X connect 86 0 88 0;
#X connect 87 0 89 0;
#X connect 90 0 92 0;
#X connect 91 0 93 0;
#X connect 94 0 96 0;
#X connect 95 0 97 0;
#X connect 98 0 100 0;
#X connect 99 0 101 0;
#X connect 102 0 104 0;
#X connect 103 0 105 0;
#X connect 106 0 108 0;
#X connect 107 0 109 0;
#X connect 110 0 112 0;
#X connect 111 0 113 0;
#X connect 114 0 116 0;
#X connect 115 0 117 0;
#X connect 118 0 120 0;
#X connect 119 0 121 0;
#X connect 122 0 124 0;
#X connect 123 0 125 0;
#X connect 126 0 128 0;
#X connect 127 0 129 0;
#X connect 130 0 132 0;
#X connect 131 0 133 0;
#X connect 134 0 136 0;
#X connect 135 0 137 0;
#X connect 138 0 140 0;
#X connect 139 0 141 0;
#X connect 159 0 84 0;
#X connect 160 0 85 0;
#X connect 162 0 165 0;
#X connect 163 0 161 0;
#X connect 164 0 162 0;
#X connect 165 0 167 0;
#X connect 166 0 168 0;
#X connect 167 0 166 0;
